<?xml version="1.0" encoding="UTF-8"?>
<svg id="Layer_2" data-name="Layer 2" xmlns="http://www.w3.org/2000/svg" xmlns:xlink="http://www.w3.org/1999/xlink" viewBox="0 0 497.6 436.65">
  <defs>
    <style>
      .cls-1 {
        fill: url(#linear-gradient-15);
      }

      .cls-2 {
        fill: url(#linear-gradient-2);
        opacity: .42;
      }

      .cls-3 {
        fill: url(#linear-gradient-13);
      }

      .cls-4 {
        fill: url(#linear-gradient-28);
      }

      .cls-5 {
        fill: url(#linear-gradient-22);
      }

      .cls-5, .cls-6, .cls-7, .cls-8 {
        opacity: .73;
      }

      .cls-9 {
        fill: url(#linear-gradient-10);
      }

      .cls-10 {
        fill: url(#linear-gradient-12);
      }

      .cls-6 {
        fill: url(#linear-gradient-23);
      }

      .cls-11 {
        fill: url(#linear-gradient-20);
      }

      .cls-11, .cls-12, .cls-13, .cls-14 {
        opacity: .75;
      }

      .cls-15 {
        fill: url(#linear-gradient-4);
      }

      .cls-16 {
        fill: url(#linear-gradient-3);
      }

      .cls-12 {
        fill: url(#linear-gradient-19);
      }

      .cls-17 {
        fill: url(#linear-gradient-5);
      }

      .cls-7 {
        fill: url(#linear-gradient-24);
      }

      .cls-18 {
        fill: url(#linear-gradient-8);
      }

      .cls-19 {
        fill: url(#linear-gradient-14);
      }

      .cls-20 {
        fill: url(#linear-gradient-18);
        opacity: .45;
      }

      .cls-21 {
        fill: url(#linear-gradient-29);
      }

      .cls-22 {
        fill: url(#linear-gradient-17);
      }

      .cls-23 {
        fill: url(#linear-gradient-7);
      }

      .cls-24 {
        fill: url(#linear-gradient-9);
      }

      .cls-25 {
        fill: url(#linear-gradient-11);
      }

      .cls-26 {
        fill: url(#linear-gradient-6);
      }

      .cls-27 {
        fill: url(#linear-gradient-21);
      }

      .cls-13 {
        fill: url(#linear-gradient-27);
      }

      .cls-14 {
        fill: url(#linear-gradient-26);
      }

      .cls-28 {
        fill: #603ed1;
      }

      .cls-29 {
        fill: url(#linear-gradient-16);
      }

      .cls-8 {
        fill: url(#linear-gradient-25);
      }

      .cls-30 {
        fill: #0fb1a2;
      }

      .cls-31 {
        fill: url(#linear-gradient);
      }
    </style>
    <linearGradient id="linear-gradient" x1="500.97" y1="188.47" x2="309.73" y2="21.63" gradientUnits="userSpaceOnUse">
      <stop offset="0" stop-color="#603ed1"/>
      <stop offset=".22" stop-color="#4568c2"/>
      <stop offset=".44" stop-color="#308ab5"/>
      <stop offset=".65" stop-color="#20a3ad"/>
      <stop offset=".84" stop-color="#17b2a7"/>
      <stop offset="1" stop-color="#14b8a6"/>
    </linearGradient>
    <linearGradient id="linear-gradient-2" x1="331.72" y1="102.14" x2="315.94" y2="27.5" gradientUnits="userSpaceOnUse">
      <stop offset="0" stop-color="#603ed1"/>
      <stop offset=".19" stop-color="#4761c2"/>
      <stop offset=".42" stop-color="#2e83b4"/>
      <stop offset=".64" stop-color="#1d9caa"/>
      <stop offset=".84" stop-color="#12aba4"/>
      <stop offset="1" stop-color="#0fb1a2"/>
    </linearGradient>
    <linearGradient id="linear-gradient-3" x1="423" y1="186.41" x2="416.17" y2="152.28" gradientUnits="userSpaceOnUse">
      <stop offset=".1" stop-color="#603ed1"/>
      <stop offset=".28" stop-color="#4c59c5"/>
      <stop offset=".6" stop-color="#2b88b2"/>
      <stop offset=".86" stop-color="#16a6a6"/>
      <stop offset="1" stop-color="#0fb1a2"/>
    </linearGradient>
    <linearGradient id="linear-gradient-4" x1="327.98" y1="192.01" x2="314.53" y2="162.59" xlink:href="#linear-gradient-3"/>
    <linearGradient id="linear-gradient-5" x1="341.65" y1="118.88" x2="302.89" y2="126.37" xlink:href="#linear-gradient-2"/>
    <linearGradient id="linear-gradient-6" x1="365.32" y1="184.49" x2="278.85" y2="201.2" xlink:href="#linear-gradient-2"/>
    <linearGradient id="linear-gradient-7" x1="-28.32" y1="458.22" x2="247.96" y2="-11.45" xlink:href="#linear-gradient"/>
    <linearGradient id="linear-gradient-8" x1="14" y1="342.91" x2="38.79" y2="286.03" xlink:href="#linear-gradient-2"/>
    <linearGradient id="linear-gradient-9" x1="92.58" y1="445.53" x2="159.61" y2="252.31" xlink:href="#linear-gradient-2"/>
    <linearGradient id="linear-gradient-10" x1="156.93" y1="384.06" x2="227.06" y2="384.06" xlink:href="#linear-gradient-2"/>
    <linearGradient id="linear-gradient-11" x1="147.76" y1="321.89" x2="231.64" y2="321.89" xlink:href="#linear-gradient-2"/>
    <linearGradient id="linear-gradient-12" x1="165.87" y1="350.22" x2="111.32" y2="272.67" xlink:href="#linear-gradient-2"/>
    <linearGradient id="linear-gradient-13" x1="197.92" y1="205.55" x2="243.04" y2="110.06" xlink:href="#linear-gradient-2"/>
    <linearGradient id="linear-gradient-14" x1="174.51" y1="393.06" x2="260.57" y2="78.02" xlink:href="#linear-gradient"/>
    <linearGradient id="linear-gradient-15" x1="71.99" y1="365.05" x2="158.04" y2="50.02" xlink:href="#linear-gradient"/>
    <linearGradient id="linear-gradient-16" x1="125.04" y1="379.54" x2="211.09" y2="64.51" xlink:href="#linear-gradient"/>
    <linearGradient id="linear-gradient-17" x1="428.69" y1="115.83" x2="404.21" y2="73.19" xlink:href="#linear-gradient-2"/>
    <linearGradient id="linear-gradient-18" x1="355.21" y1="30.15" x2="358.85" y2="208.57" xlink:href="#linear-gradient-2"/>
    <linearGradient id="linear-gradient-19" x1="136.21" y1="230.11" x2="157.16" y2="70.6" xlink:href="#linear-gradient-2"/>
    <linearGradient id="linear-gradient-20" x1="18.97" y1="364.71" x2="50.65" y2="123.61" xlink:href="#linear-gradient-2"/>
    <linearGradient id="linear-gradient-21" x1="419.19" y1="195.02" x2="415.92" y2="134.51" xlink:href="#linear-gradient-3"/>
    <linearGradient id="linear-gradient-22" x1="311.04" y1="182.27" x2="268.84" y2="153.26" gradientUnits="userSpaceOnUse">
      <stop offset=".38" stop-color="#603ed1"/>
      <stop offset=".5" stop-color="#4c59c5"/>
      <stop offset=".72" stop-color="#2b88b2"/>
      <stop offset=".9" stop-color="#16a6a6"/>
      <stop offset="1" stop-color="#0fb1a2"/>
    </linearGradient>
    <linearGradient id="linear-gradient-23" x1="319.52" y1="239.27" x2="259.09" y2="174.24" xlink:href="#linear-gradient-22"/>
    <linearGradient id="linear-gradient-24" x1="216.71" y1="156.27" x2="295.16" y2="166.57" xlink:href="#linear-gradient"/>
    <linearGradient id="linear-gradient-25" x1="283.89" y1="262.44" x2="245.85" y2="85.72" xlink:href="#linear-gradient"/>
    <linearGradient id="linear-gradient-26" x1="242.88" y1="437.02" x2="71.33" y2="374.64" xlink:href="#linear-gradient-22"/>
    <linearGradient id="linear-gradient-27" x1="93.33" y1="430.35" x2="157.08" y2="143.8" xlink:href="#linear-gradient-2"/>
    <linearGradient id="linear-gradient-28" x1="284.42" y1="350.14" x2="144.07" y2="299.11" xlink:href="#linear-gradient-22"/>
    <linearGradient id="linear-gradient-29" x1="142.6" y1="375.11" x2="91.34" y2="274.55" xlink:href="#linear-gradient-22"/>
  </defs>
  <g id="Layer_1-2" data-name="Layer 1">
    <g>
      <g>
        <path class="cls-30" d="M281.08,84.74c0,2.86-2.32,5.16-5.16,5.16s-5.16-2.31-5.16-5.16,2.31-5.15,5.16-5.15,5.16,2.31,5.16,5.15Z"/>
        <path class="cls-30" d="M234.38,57.79c0,2.84-2.31,5.16-5.16,5.16s-5.16-2.32-5.16-5.16,2.31-5.16,5.16-5.16,5.16,2.31,5.16,5.16Z"/>
        <path class="cls-30" d="M63.77,251.2c0,2.86-2.32,5.16-5.16,5.16s-5.16-2.31-5.16-5.16,2.31-5.16,5.16-5.16,5.16,2.32,5.16,5.16Z"/>
        <path class="cls-30" d="M94.16,146.99c0,2.84-2.31,5.15-5.15,5.15s-5.16-2.31-5.16-5.15,2.31-5.16,5.16-5.16,5.15,2.31,5.15,5.16Z"/>
        <path class="cls-31" d="M443.29,48.46L319.1,0c-.06-.02-.13.01-.16.07l-1.07,2.56c-.35.84-.73,1.65-1.15,2.45-.91,1.8-1.98,3.51-3.22,5.12-.18.23-.39.45-.62.64,0,0-.04.02-.11.06-.23.19-.47.34-.73.46-.07.04-.13.09-.18.12-.06.05-.11.08-.15.13-.02.02-.05.05-.07.07-.04.02-.04.04-.05.05h0c-.09.15-.15.29-.16.45-.02.11-.01.18-.01.18l4.43,77.85,33.02,30v25.22l24.57,11.64,25.87-15.52h98.28v-16.82l-54.31-76.3ZM413.86,127.78c-6.48,0-12.56-1.64-17.89-4.52-11.72-6.37-19.68-18.78-19.68-33.06,0-8.55,2.87-16.45,7.69-22.77,6.85-8.99,17.69-14.8,29.88-14.8,20.74,0,37.57,16.83,37.57,37.57s-16.83,37.58-37.57,37.58ZM472.52,125.37c-2.84,0-5.14-2.3-5.14-5.14s2.3-5.13,5.14-5.13,5.13,2.3,5.13,5.13-2.3,5.14-5.13,5.14Z"/>
        <path class="cls-2" d="M348.88,120.24l-36.01-109.38s-1.14.62-1.29.91c-.21.24-.17.62-.17.62l4.44,77.85,33.03,30Z"/>
        <polygon class="cls-16" points="490.97 151.06 477.2 164.83 394.64 198.15 348.88 191.05 348.88 152.84 371.91 166.17 397.38 151.06 490.97 151.06"/>
        <polygon class="cls-15" points="339.63 154.91 339.63 190.75 305.57 198.15 297.57 188.08 339.63 154.91"/>
        <path class="cls-17" d="M284.97,129.38l26.41-32.22,28.25,25.47v21.63l-4.58,3.46h-.01c-2.98-1.76-37.78-22.08-50.07-18.33Z"/>
        <path class="cls-26" d="M371.92,250.28h-62.79l-73.74-60.42,46.09-56.22h.01c1.02.19,12.67,2.59,24.79,7.42,7.78,3.1,15.76,7.21,21.23,12.38l-45.03,34.04,36.13,41.76h33.47l19.84,21.03Z"/>
        <path class="cls-23" d="M4.76,247.5l48.2-48.19v-78.45L4.76,247.5ZM66.26,99.06l78.19-9.29,59.95-60.84L66.26,99.06ZM303.64,52.44l-82.49-25.76-74.04,72.38-84.99,10.55v130.59c4.67,1.48,8.04,5.86,8.04,11.01,0,6.39-5.18,11.57-11.55,11.57s-11.57-5.18-11.57-11.57c0-4.85,2.99-9,7.23-10.7v-32.13l-16.15,16.15v61.3l26.66,25.47,10.67-33.75,7.69-96.25,22.81-14.22,29.91-46.07h-14.35l-21.79,21.69c.55,1.34.84,2.78.84,4.31,0,6.38-5.18,11.55-11.55,11.55s-11.57-5.18-11.57-11.55,5.18-11.57,11.57-11.57c1.96,0,3.79.49,5.41,1.35l24.86-24.76h48.54l50.47-50.47c-.41-1.17-.63-2.43-.63-3.74,0-6.39,5.18-11.57,11.55-11.57s11.55,5.18,11.55,11.57-5.16,11.55-11.55,11.55c-2.27,0-4.39-.66-6.16-1.79l-43.95,43.95h18.8l30.96-30.96h36.28c1.68-4.31,5.87-7.36,10.78-7.36,6.38,0,11.55,5.18,11.55,11.55s-5.18,11.57-11.55,11.57c-4.87,0-9.04-3.01-10.74-7.28h-34.73l-31.21,31.2h-55.38l-27.54,42.38,49.76-28.72,11.26,21.02,16.88-3.85,42.95-43.83h55.08l13.33-17.44-1.92-37.36Z"/>
        <polygon class="cls-18" points="31.29 231.9 0 265.71 41.19 389.83 62.48 321.18 31.24 290.36 31.29 231.9"/>
        <polygon class="cls-24" points="77.8 298.22 88.43 368.68 146.68 398.62 181.48 379.2 144.26 436.65 48.24 397.81 77.8 298.22"/>
        <polygon class="cls-9" points="202.24 336.32 202.24 365.18 156.93 431.8 227.06 389.83 202.24 336.32"/>
        <polygon class="cls-25" points="231.64 380.28 202.51 313.66 167.72 290.2 147.76 299.37 171.85 263.5 231.64 300.72 231.64 380.28"/>
        <path class="cls-10" d="M153.16,321.89s13.76-4.99,16.18,8.77c2.43,13.76-8.09,17.8-8.09,17.8l-13.49,2.43-18.07-10.52v-29.08l30.21-44.56-49.36,26.7v53.13l29.41,21.01c2.98,2.13,6.54,3.27,10.2,3.27h0c1.8,0,3.56-.46,5.13-1.33l17.05-9.49c5.7-3.17,9.38-9.04,9.75-15.55l.59-10.19c.31-5.44-1.92-10.75-6.14-14.19-6.01-4.9-15.36-9.37-24.71-1.31-4.05,6.1,1.35,3.1,1.35,3.1Z"/>
        <polygon class="cls-3" points="181.48 163.92 253.84 151.06 223.33 190.44 235.38 202.69 199.96 205.83 181.48 163.92"/>
        <polygon class="cls-19" points="262.39 141.69 204.4 149.67 239.3 113.46 287.48 113.46 262.39 141.69"/>
        <polygon class="cls-1" points="87.76 227.65 132.84 221.95 84.91 278.66 87.76 227.65"/>
        <path class="cls-29" d="M91.56,187.08l-1.42,30.37,53.14-5.93,3.34-9.25,31.3,48.02h67.86c.63,0,1.02-.68.7-1.22-2.68-4.48-12.37-19.27-19.69-19.75-10.36-.67-27.76,0-27.76,0l-36.54-82.33-70.94,40.1Z"/>
        <path class="cls-22" d="M441.56,89.8c0,15.37-12.45,27.82-27.81,27.82-8.09,0-15.37-3.45-20.45-8.97-3.85-4.17-6.44-9.54-7.16-15.48h18.99c1.34,3.44,4.69,5.88,8.61,5.88,5.1,0,9.25-4.14,9.25-9.26s-4.14-9.25-9.25-9.25c-3.65,0-6.8,2.11-8.3,5.18h-19.22c.33-2.22.91-4.35,1.73-6.37,4.13-10.18,14.12-17.37,25.79-17.37,15.36,0,27.81,12.45,27.81,27.81Z"/>
      </g>
      <path class="cls-20" d="M399.31,141.58l-25.87,15.52-21.49-36.86-38.67-108.73-.3-.85,3.73-5.55,67.26,62.33c-4.82,6.32-7.69,14.22-7.69,22.77,0,14.28,7.96,26.69,19.68,33.06l3.34,18.32Z"/>
      <polygon class="cls-12" points="90.13 217.45 156.93 168.98 182.7 239.59 177.92 250.28 146.62 202.26 143.28 211.51 90.13 217.45"/>
      <polygon class="cls-11" points="0 265.71 43.49 304.79 52.4 353.67 41.19 389.83 0 265.71"/>
      <polygon class="cls-27" points="487.12 154.91 424.42 168.98 371.91 168.98 348.88 154.91 348.88 191.05 394.64 198.15 477.2 164.83 487.12 154.91"/>
      <path class="cls-5" d="M327.65,153.59l-45.19,33.9-20.47,1.79,44.28-48.21c7.78,3.1,15.76,7.21,21.23,12.38.05.05.11.1.16.15Z"/>
      <polygon class="cls-6" points="261.99 189.27 311.42 237.52 318.6 229.25 282.47 187.49 261.99 189.27"/>
      <path class="cls-7" d="M306.27,141.06l-44.28,48.21-26.61.58,46.09-56.22h.01c1.02.19,12.67,2.59,24.79,7.42Z"/>
      <path class="cls-28" d="M335.04,147.72h.01c.13.09.19.12.19.12"/>
      <polygon class="cls-8" points="261.99 189.27 311.42 237.52 309.12 250.28 235.38 189.86 261.99 189.27"/>
      <polygon class="cls-14" points="96.86 373.02 144.26 436.65 181.48 379.2 146.68 398.62 96.86 373.02"/>
      <polygon class="cls-13" points="56.24 370.84 114.86 401.49 144.26 436.65 48.24 397.81 56.24 370.84"/>
      <polygon class="cls-4" points="217.66 348.3 224.05 305.76 167.72 290.2 202.51 313.66 217.66 348.3"/>
      <polygon class="cls-21" points="110.54 293.43 129.69 340.36 147.76 350.88 110.54 346.57 110.54 293.43"/>
    </g>
  </g>
</svg>